<?xml version="1.0" encoding="UTF-8" standalone="no"?>
<!-- Created with Inkscape (http://www.inkscape.org/) -->

<svg
   width="142.99986mm"
   height="35.036911mm"
   viewBox="0 0 142.99986 35.036911"
   version="1.1"
   id="svg1"
   inkscape:version="1.3 (0e150ed, 2023-07-21)"
   sodipodi:docname="logo-inkscape.svg"
   xml:space="preserve"
   xmlns:inkscape="http://www.inkscape.org/namespaces/inkscape"
   xmlns:sodipodi="http://sodipodi.sourceforge.net/DTD/sodipodi-0.dtd"
   xmlns="http://www.w3.org/2000/svg"
   xmlns:svg="http://www.w3.org/2000/svg"><sodipodi:namedview
     id="namedview1"
     pagecolor="#ffffff"
     bordercolor="#000000"
     borderopacity="0.25"
     inkscape:showpageshadow="2"
     inkscape:pageopacity="0.0"
     inkscape:pagecheckerboard="0"
     inkscape:deskcolor="#d1d1d1"
     inkscape:document-units="mm"
     inkscape:zoom="0.96459612"
     inkscape:cx="244.66198"
     inkscape:cy="68.422419"
     inkscape:window-width="1680"
     inkscape:window-height="997"
     inkscape:window-x="0"
     inkscape:window-y="25"
     inkscape:window-maximized="0"
     inkscape:current-layer="layer1"
     showgrid="false" /><defs
     id="defs1" /><g
     inkscape:label="Layer 1"
     inkscape:groupmode="layer"
     id="layer1"
     transform="translate(-38.323623,-119.61415)"><path
       d="m 80.458888,148.1432 c -1.523117,0 -2.919308,-0.34616 -4.188572,-1.03849 -1.246187,-0.71541 -2.250059,-1.76543 -3.011618,-3.15008 -0.738481,-1.38465 -1.107722,-3.11547 -1.107722,-5.19245 0,-2.07697 0.357702,-3.80779 1.073106,-5.19244 0.738481,-1.38465 1.730814,-2.42314 2.977001,-3.11547 1.269265,-0.69233 2.688533,-1.03849 4.257805,-1.03849 1.800047,0 3.392397,0.39232 4.777049,1.17696 1.384652,0.78463 2.480835,1.88081 3.288549,3.28854 0.807713,1.38465 1.21157,3.01162 1.21157,4.8809 0,1.86928 -0.403857,3.50779 -1.21157,4.91552 -0.807714,1.40773 -1.903897,2.50391 -3.288549,3.28854 -1.384652,0.78464 -2.977002,1.17696 -4.777049,1.17696 z m -9.72718,6.50786 v -25.0622 h 3.1847 v 4.95013 l -0.207698,4.25781 0.346163,4.2578 v 11.59646 z m 9.45025,-9.41563 c 1.176954,0 2.226982,-0.26539 3.150083,-0.79618 0.946179,-0.53078 1.68466,-1.2808 2.215443,-2.25005 0.553861,-0.99234 0.830791,-2.13468 0.830791,-3.42702 0,-1.31542 -0.27693,-2.44622 -0.830791,-3.3924 -0.530783,-0.96925 -1.269264,-1.71927 -2.215443,-2.25005 -0.923101,-0.53079 -1.973129,-0.79618 -3.150083,-0.79618 -1.153877,0 -2.203904,0.26539 -3.150083,0.79618 -0.923101,0.53078 -1.661583,1.2808 -2.215444,2.25005 -0.530783,0.94618 -0.796174,2.07698 -0.796174,3.3924 0,1.29234 0.265391,2.43468 0.796174,3.42702 0.553861,0.96925 1.292343,1.71927 2.215444,2.25005 0.946179,0.53079 1.996206,0.79618 3.150083,0.79618 z m 21.107552,2.977 c -1.846199,0 -3.611629,-0.27693 -5.296289,-0.83079 -1.68466,-0.57694 -3.011618,-1.31542 -3.980874,-2.21544 l 1.280803,-2.70007 c 0.923101,0.80771 2.100055,1.47696 3.530862,2.00774 1.430807,0.53079 2.919307,0.79618 4.465498,0.79618 1.40773,0 2.55007,-0.16154 3.42702,-0.48463 0.87695,-0.32309 1.52312,-0.76156 1.93851,-1.31542 0.41539,-0.57694 0.62309,-1.22311 0.62309,-1.93851 0,-0.83079 -0.27693,-1.50004 -0.83079,-2.00775 -0.53078,-0.50771 -1.23464,-0.91156 -2.11159,-1.21157 -0.85387,-0.32309 -1.80005,-0.60002 -2.83854,-0.83079 -1.03849,-0.23077 -2.088514,-0.49617 -3.15008,-0.79618 -1.038489,-0.32308 -1.996207,-0.72694 -2.873153,-1.21157 -0.853869,-0.48463 -1.546195,-1.1308 -2.076978,-1.93851 -0.530783,-0.83079 -0.796175,-1.89236 -0.796175,-3.1847 0,-1.24619 0.323085,-2.38852 0.969256,-3.42701 0.669249,-1.06157 1.68466,-1.9039 3.046235,-2.52699 1.384652,-0.64617 3.138544,-0.96926 5.261675,-0.96926 1.40773,0 2.80392,0.18462 4.18857,0.55386 1.38465,0.36924 2.58469,0.90002 3.6001,1.59235 l -1.14234,2.76931 c -1.03849,-0.69233 -2.13467,-1.18849 -3.28855,-1.4885 -1.15387,-0.32309 -2.27313,-0.48463 -3.35778,-0.48463 -1.36157,0 -2.480833,0.17308 -3.357779,0.51924 -0.876946,0.34617 -1.523117,0.80772 -1.938513,1.38465 -0.392318,0.57694 -0.588477,1.22311 -0.588477,1.93852 0,0.85387 0.265392,1.53465 0.796175,2.04236 0.553861,0.50771 1.257725,0.91156 2.111594,1.21157 0.876947,0.30001 1.83466,0.57694 2.87315,0.83079 1.03849,0.23077 2.07698,0.49616 3.11547,0.79617 1.06157,0.30001 2.01928,0.69233 2.87315,1.17696 0.87695,0.48463 1.58081,1.1308 2.1116,1.93851 0.53078,0.80771 0.79617,1.8462 0.79617,3.11547 0,1.22311 -0.33462,2.36544 -1.00387,3.42701 -0.66925,1.03849 -1.70774,1.88082 -3.11547,2.52699 -1.38465,0.62309 -3.13855,0.93464 -5.26168,0.93464 z m 23.14989,-18.79665 c 1.50004,0 2.81546,0.28847 3.94626,0.86541 1.15388,0.57694 2.0539,1.45389 2.70007,2.63084 0.64617,1.17695 0.96926,2.66545 0.96926,4.4655 v 10.55797 h -3.32316 v -10.17719 c 0,-1.77697 -0.43847,-3.11547 -1.31542,-4.01549 -0.85387,-0.90003 -2.06545,-1.35004 -3.63472,-1.35004 -1.17695,0 -2.2039,0.23078 -3.08085,0.69233 -0.87695,0.46155 -1.55773,1.14233 -2.04236,2.04236 -0.46155,0.90003 -0.69232,2.01929 -0.69232,3.35778 v 9.45025 h -3.32317 v -25.68529 h 3.32317 v 12.28878 l -0.65771,-1.31542 c 0.60001,-1.20003 1.52311,-2.13467 2.7693,-2.80392 1.24619,-0.66925 2.70007,-1.00387 4.36165,-1.00387 z m 24.56921,18.51972 v -3.87702 l -0.17308,-0.72695 v -6.61171 c 0,-1.40773 -0.41539,-2.49237 -1.24618,-3.25393 -0.80771,-0.78464 -2.03082,-1.17696 -3.66933,-1.17696 -1.08465,0 -2.14621,0.18462 -3.1847,0.55386 -1.03849,0.34617 -1.91543,0.81926 -2.63084,1.41927 l -1.38465,-2.49237 c 0.94618,-0.76156 2.07698,-1.3385 3.3924,-1.73082 1.33849,-0.41539 2.73468,-0.62309 4.18857,-0.62309 2.51545,0 4.45396,0.61156 5.81554,1.83467 1.36157,1.22311 2.04236,3.09239 2.04236,5.60784 v 11.07721 z m -6.02323,0.2077 c -1.36157,0 -2.56161,-0.23078 -3.6001,-0.69233 -1.01541,-0.46155 -1.80004,-1.09618 -2.35391,-1.90389 -0.55386,-0.83079 -0.83079,-1.76543 -0.83079,-2.80392 0,-0.99233 0.23078,-1.89236 0.69233,-2.70007 0.48463,-0.80772 1.25772,-1.45389 2.31929,-1.93852 1.08465,-0.48463 2.53853,-0.72694 4.36166,-0.72694 h 5.81553 v 2.38852 h -5.67707 c -1.66158,0 -2.78084,0.27693 -3.35778,0.8308 -0.57694,0.55386 -0.86541,1.22311 -0.86541,2.00774 0,0.90003 0.3577,1.62697 1.07311,2.18083 0.7154,0.53078 1.70773,0.79617 2.977,0.79617 1.24619,0 2.33083,-0.27693 3.25393,-0.83079 0.94618,-0.55386 1.62697,-1.36157 2.04236,-2.42314 l 0.65771,2.28468 c -0.43847,1.08464 -1.21157,1.95005 -2.31929,2.59622 -1.10772,0.62309 -2.50391,0.93464 -4.18857,0.93464 z m 14.73817,-0.2077 v -25.68529 h 3.32317 v 25.68529 z m 20.44985,0 v -3.87702 l -0.17308,-0.72695 v -6.61171 c 0,-1.40773 -0.4154,-2.49237 -1.24619,-3.25393 -0.80771,-0.78464 -2.03082,-1.17696 -3.66932,-1.17696 -1.08465,0 -2.14621,0.18462 -3.1847,0.55386 -1.03849,0.34617 -1.91544,0.81926 -2.63084,1.41927 l -1.38465,-2.49237 c 0.94617,-0.76156 2.07697,-1.3385 3.39239,-1.73082 1.3385,-0.41539 2.73469,-0.62309 4.18857,-0.62309 2.51545,0 4.45397,0.61156 5.81554,1.83467 1.36157,1.22311 2.04236,3.09239 2.04236,5.60784 v 11.07721 z m -6.02323,0.2077 c -1.36158,0 -2.56161,-0.23078 -3.6001,-0.69233 -1.01541,-0.46155 -1.80005,-1.09618 -2.35391,-1.90389 -0.55386,-0.83079 -0.83079,-1.76543 -0.83079,-2.80392 0,-0.99233 0.23078,-1.89236 0.69233,-2.70007 0.48463,-0.80772 1.25772,-1.45389 2.31929,-1.93852 1.08464,-0.48463 2.53852,-0.72694 4.36165,-0.72694 h 5.81554 v 2.38852 h -5.67707 c -1.66159,0 -2.78085,0.27693 -3.35778,0.8308 -0.57694,0.55386 -0.86541,1.22311 -0.86541,2.00774 0,0.90003 0.3577,1.62697 1.0731,2.18083 0.71541,0.53078 1.70774,0.79617 2.97701,0.79617 1.24619,0 2.33083,-0.27693 3.25393,-0.83079 0.94618,-0.55386 1.62697,-1.36157 2.04236,-2.42314 l 0.65771,2.28468 c -0.43847,1.08464 -1.21157,1.95005 -2.31929,2.59622 -1.10772,0.62309 -2.50391,0.93464 -4.18857,0.93464 z"
       id="text1"
       style="font-size:34.6163px;font-family:Montserrat;-inkscape-font-specification:'Montserrat, @wght=500';font-variation-settings:'wght' 500;letter-spacing:-0.596833px;fill:#0044cc;stroke-width:0.298416"
       aria-label="OpShala"
       sodipodi:nodetypes="sccsccsscssssccccccccsccsccsccsccsscccssscsccscccsccsscccsscscccccssccsscssccscsscsccccccsscccscsccccsssccsccsccsccssscsccccsccccccccscsccccsssccsccsccsccssscsccccs" /><path
       style="font-size:53.1687px;font-family:'DejaVu Sans Mono for Powerline';-inkscape-font-specification:'DejaVu Sans Mono for Powerline, Normal';font-variation-settings:'wght' 900;letter-spacing:-0.9167px;fill:#0044cc;stroke-width:0.458349"
       d="m 51.719643,119.718 q 0.908645,-0.10385 1.81729,-0.10385 0.934606,0 1.843251,0.10385 l 0.674993,3.32304 q 1.479793,0.28557 2.881702,0.9346 l 2.388438,-2.2067 q 1.609599,0.96056 2.959586,2.31055 l -1.298064,2.82978 q 1.038451,1.11633 1.765367,2.44036 l 2.907663,-0.3375 q 0.778839,1.79133 1.116335,3.71247 l -2.466321,1.37594 q 0.103845,0.77884 0.103845,1.53172 0,0.75288 -0.103845,1.50575 l 2.466321,1.40191 q -0.337496,1.92114 -1.116335,3.71247 l -2.907663,-0.3375 q -0.726916,1.32402 -1.765367,2.44036 l 1.298064,2.82978 q -1.349987,1.34999 -2.959586,2.31055 l -2.388438,-2.18074 q -1.401909,0.62307 -2.881702,0.9346 l -0.674993,3.29708 q -0.908645,0.12981 -1.843251,0.12981 -0.908645,0 -1.81729,-0.12981 l -0.674993,-3.29708 q -1.505754,-0.31153 -2.881702,-0.9346 l -2.388438,2.18074 q -1.609599,-0.96056 -2.959586,-2.31055 l 1.298064,-2.82978 q -1.038451,-1.11634 -1.765367,-2.44036 l -2.907663,0.3375 q -0.778838,-1.79133 -1.116335,-3.71247 l 2.466322,-1.40191 q -0.103846,-0.75287 -0.103846,-1.50575 0,-0.75288 0.103846,-1.53172 l -2.466322,-1.37594 q 0.337497,-1.92114 1.116335,-3.71247 l 2.907663,0.3375 q 0.726916,-1.32403 1.765367,-2.46632 l -1.298064,-2.80382 q 1.349987,-1.34999 2.959586,-2.31055 l 2.388438,2.18074 q 1.375948,-0.62307 2.881702,-0.90864 z m 8.359532,9.37202 q -2.699973,-2.72594 -6.542242,-2.72594 -3.816308,0 -6.542243,2.72594 -2.699973,2.72593 -2.699973,6.5682 0,3.81631 2.699973,6.51628 2.725935,2.69998 6.542243,2.69998 3.842269,0 6.542242,-2.69998 2.725935,-2.69997 2.725935,-6.51628 0,-3.84227 -2.725935,-6.5682 z m -4.101882,4.12784 q 1.01249,0.98653 1.01249,2.4144 0,1.42787 -1.01249,2.44036 -1.01249,0.98653 -2.44036,0.98653 -1.401909,0 -2.414399,-0.98653 -1.01249,-1.01249 -1.01249,-2.44036 0,-1.42787 1.01249,-2.4144 1.01249,-1.01249 2.414399,-1.01249 1.42787,0 2.44036,1.01249 z"
       id="text2"
       aria-label="⚙" /></g></svg>
