<?xml version="1.0" encoding="UTF-8" standalone="no"?>
<!-- Created with Inkscape (http://www.inkscape.org/) -->

<svg
   width="122"
   height="122"
   viewBox="0 0 32.279167 32.279167"
   version="1.1"
   id="svg1"
   sodipodi:docname="favicon.svg"
   inkscape:version="1.3 (0e150ed, 2023-07-21)"
   inkscape:export-filename="../../opshala/src/assets/logo-symbol.png"
   inkscape:export-xdpi="300"
   inkscape:export-ydpi="300"
   xmlns:inkscape="http://www.inkscape.org/namespaces/inkscape"
   xmlns:sodipodi="http://sodipodi.sourceforge.net/DTD/sodipodi-0.dtd"
   xmlns="http://www.w3.org/2000/svg"
   xmlns:svg="http://www.w3.org/2000/svg">
  <sodipodi:namedview
     id="namedview1"
     pagecolor="#ffffff"
     bordercolor="#000000"
     borderopacity="0.25"
     inkscape:showpageshadow="2"
     inkscape:pageopacity="0.0"
     inkscape:pagecheckerboard="0"
     inkscape:deskcolor="#d1d1d1"
     inkscape:document-units="px"
     showgrid="false"
     inkscape:zoom="2.49"
     inkscape:cx="70.682731"
     inkscape:cy="51.807229"
     inkscape:window-width="1920"
     inkscape:window-height="1027"
     inkscape:window-x="0"
     inkscape:window-y="25"
     inkscape:window-maximized="1"
     inkscape:current-layer="layer1" />
  <defs
     id="defs1" />
  <g
     inkscape:label="Layer 1"
     inkscape:groupmode="layer"
     id="layer1"
     transform="translate(-89.958333,-132.55625)">
    <rect
       style="fill:#0044cc;fill-opacity:1;stroke:#ffffff;stroke-width:0.233"
       id="rect1"
       width="28.575001"
       height="28.575001"
       x="91.810417"
       y="134.40834"
       ry="5.2916665" />
    <path
       style="font-size:53.1687px;font-family:'DejaVu Sans Mono for Powerline';-inkscape-font-specification:'DejaVu Sans Mono for Powerline, Normal';font-variation-settings:'wght' 900;letter-spacing:-0.9167px;fill:#ffffff;stroke-width:0.340415"
       d="m 104.73857,136.8667 q 0.67486,-0.0771 1.34971,-0.0771 0.69413,0 1.36897,0.0771 l 0.50132,2.46801 q 1.09904,0.21209 2.14023,0.69413 l 1.7739,-1.63891 q 1.19544,0.71341 2.19807,1.71604 l -0.96407,2.10166 q 0.77125,0.8291 1.31114,1.81245 l 2.15951,-0.25066 q 0.57844,1.33042 0.82909,2.75725 l -1.83172,1.0219 q 0.0771,0.57844 0.0771,1.13762 0,0.55916 -0.0771,1.1183 l 1.83172,1.0412 q -0.25065,1.42683 -0.82909,2.75724 l -2.15951,-0.25066 q -0.53989,0.98335 -1.31114,1.81245 l 0.96407,2.10167 q -1.00263,1.00264 -2.19807,1.71605 l -1.7739,-1.61964 q -1.04119,0.46276 -2.14023,0.69413 l -0.50132,2.44873 q -0.67484,0.0964 -1.36897,0.0964 -0.67485,0 -1.34971,-0.0964 l -0.50131,-2.44873 q -1.11832,-0.23137 -2.14023,-0.69413 l -1.77388,1.61964 q -1.195442,-0.71341 -2.198082,-1.71605 l 0.96407,-2.10167 q -0.771251,-0.8291 -1.31113,-1.81245 l -2.15951,0.25066 q -0.57844,-1.33041 -0.829101,-2.75724 l 1.83173,-1.0412 q -0.0771,-0.55914 -0.0771,-1.1183 0,-0.55918 0.0771,-1.13762 l -1.83173,-1.0219 q 0.250661,-1.42683 0.829101,-2.75725 l 2.15951,0.25066 q 0.53988,-0.98335 1.31113,-1.83172 l -0.96407,-2.08239 q 1.00264,-1.00263 2.198082,-1.71604 l 1.77388,1.61963 q 1.02191,-0.46276 2.14023,-0.67485 z m 6.20861,6.96058 q -2.00526,-2.02455 -4.8589,-2.02455 -2.83437,0 -4.85891,2.02455 -2.005263,2.02453 -2.005263,4.87817 0,2.83437 2.005263,4.83964 2.02454,2.00526 4.85891,2.00526 2.85364,0 4.8589,-2.00526 2.02455,-2.00527 2.02455,-4.83964 0,-2.85364 -2.02455,-4.87817 z m -3.04645,3.06572 q 0.75197,0.7327 0.75197,1.79319 0,1.06046 -0.75197,1.81244 -0.75198,0.73269 -1.81245,0.73269 -1.04119,0 -1.79317,-0.73269 -0.75197,-0.75198 -0.75197,-1.81244 0,-1.06049 0.75197,-1.79319 0.75198,-0.75196 1.79317,-0.75196 1.06047,0 1.81245,0.75196 z"
       id="text2"
       aria-label="⚙"
       inkscape:label="text2" />
  </g>
</svg>
